<svg width="24" height="45" viewBox="0 0 24 45" fill="none" xmlns="http://www.w3.org/2000/svg">
<path d="M2.25285 32.7199C2.25202 33.1941 1.86694 33.5778 1.39276 33.577V33.577C0.839542 33.576 0.391861 33.1268 0.392834 32.5736L0.447475 1.48294L2.30774 1.48621L2.25285 32.7199Z" fill="black"/>
<path d="M23.2945 21.0112C23.2937 21.4735 22.9183 21.8476 22.4559 21.8468V21.8468C21.9936 21.846 21.6195 21.4705 21.6203 21.0082L21.6346 12.8765C21.6354 12.4141 22.0108 12.04 22.4732 12.0408V12.0408C22.9355 12.0416 23.3096 12.4171 23.3088 12.8794L23.2945 21.0112Z" fill="black"/>
<path d="M23.0843 34.7533C23.0835 35.2439 22.6628 35.6286 22.1741 35.5857V35.5857C21.7412 35.5478 21.4093 35.1849 21.4101 34.7504L21.4169 30.9048C21.4181 30.2024 21.815 29.5607 22.4429 29.2459V29.2459L22.7219 29.3802C22.7834 29.4097 22.8397 29.4489 22.8889 29.4962V29.4962C22.9622 29.5667 23.0177 29.6535 23.051 29.7497L23.0547 29.7606C23.08 29.8337 23.0929 29.9105 23.0927 29.9879L23.092 30.4059L23.0885 32.3671L23.0843 34.7533Z" fill="black"/>
<path d="M9.74302 28.9954C9.30811 29.2349 8.74857 29.084 8.49312 28.6582V28.6582C8.23758 28.2323 8.38314 27.6928 8.81821 27.4532L21.7353 20.3396C22.1702 20.1001 22.7297 20.251 22.9852 20.6768V20.6768C23.2407 21.1027 23.0951 21.6422 22.6601 21.8818L9.74302 28.9954Z" fill="black"/>
<path d="M0.891586 2.05362C0.440706 1.8031 0.29159 1.24221 0.558525 0.80085V0.80085C0.825461 0.359488 1.40737 0.204784 1.85824 0.45531L22.7581 12.0681C23.209 12.3186 23.3581 12.8795 23.0912 13.3208V13.3208C22.8242 13.7622 22.2423 13.9169 21.7914 13.6664L0.891586 2.05362Z" fill="black"/>
<path d="M1.22005 10.5964C0.784946 10.3546 0.641046 9.81332 0.898645 9.3874V9.3874C1.15624 8.96147 1.71779 8.81218 2.1529 9.05394L22.5016 20.3604C22.9367 20.6022 23.0806 21.1435 22.823 21.5694V21.5694C22.5654 21.9953 22.0039 22.1446 21.5687 21.9028L1.22005 10.5964Z" fill="black"/>
<path d="M14.2066 26.5762C13.7247 26.2991 13.663 25.6456 14.0835 25.2727V25.2727C14.3578 25.0294 14.7602 24.9838 15.0774 25.16L22.6145 29.3479C23.0464 29.5879 23.1893 30.1252 22.9336 30.5479V30.5479C22.6752 30.9751 22.1096 31.1212 21.6771 30.8724L14.2066 26.5762Z" fill="black"/>
<path d="M8.88355 29.0235C8.49783 28.8294 8.32151 28.3889 8.4686 27.9868V27.9868C8.65208 27.4852 9.25298 27.2541 9.73137 27.5012L22.6557 34.1762C23.1401 34.4264 23.2188 35.068 22.8102 35.4365V35.4365C22.5568 35.6651 22.1848 35.7163 21.8826 35.5642L8.88355 29.0235Z" fill="black"/>
<path d="M8.81546 43.8467C8.45261 44.0647 7.97571 43.9957 7.6847 43.6832V43.6832C7.30992 43.2807 7.39793 42.6541 7.86808 42.3778L21.7981 34.1913C22.2744 33.9114 22.9016 34.1815 23.0169 34.716V34.716C23.0857 35.0355 22.9441 35.3594 22.6611 35.5294L8.81546 43.8467Z" fill="black"/>
</svg>
